<svg id="Layer_1" enable-background="new 0 0 128 128" height="512" viewBox="0 0 128 128" width="512" xmlns="http://www.w3.org/2000/svg"><g><path d="m117.247 103.045h-2.87c-1.303-7.86-7.187-14.173-14.816-16.102v-64.943c0-2.757-2.243-5-5-5h-14.063c-.615-2.064-2.509-3.583-4.771-3.583h-10.766c-1.033-4.475-5.073-7.75-9.734-7.75s-8.702 3.275-9.734 7.75h-10.766c-2.262 0-4.155 1.519-4.771 3.583h-14.062c-2.757 0-5 2.243-5 5v99.333c0 2.757 2.243 5 5 5h78.775c9.501 0 17.46-6.669 19.487-15.569h3.092c2.128 0 3.859-1.731 3.859-3.859s-1.732-3.86-3.86-3.86z" fill="#e6e7e8"/><g><g><path d="m90.56 121.333h-78.666c-2.209 0-4-1.791-4-4v-99.333c0-2.209 1.791-4 4-4h78.666c2.209 0 4 1.791 4 4v99.333c0 2.209-1.79 4-4 4z" fill="#e3cf20"/><path d="m85.56 114.333h-68.666c-1.105 0-2-.895-2-2v-89.333c0-1.105.895-2 2-2h68.666c1.105 0 2 .895 2 2v89.333c0 1.105-.895 2-2 2z" fill="#fff5d4"/><path d="m60.13 10.417c-.61-4.377-4.358-7.75-8.903-7.75s-8.293 3.373-8.903 7.75h-11.597c-2.209 0-4 1.791-4 4v8.5c0 1.105.895 2 2 2h45c1.105 0 2-.895 2-2v-8.5c0-2.209-1.791-4-4-4z" fill="#e3cf20"/><g fill="#fff"><path d="m73.727 21.917h-45c-1.105 0-2-.895-2-2v3c0 1.105.895 2 2 2h45c1.105 0 2-.895 2-2v-3c0 1.104-.895 2-2 2z"/><circle cx="51.227" cy="11.667" r="3"/></g></g><g><g fill="#face75"><path d="m113.247 100.046h-3.727c.089.748.149 1.505.149 2.277 0 1.177-.122 2.323-.326 3.441h3.905c1.579 0 2.859-1.28 2.859-2.859s-1.281-2.859-2.86-2.859z"/><path d="m25.669 102.323c0-.772.06-1.529.149-2.277h-3.727c-1.579 0-2.859 1.28-2.859 2.859s1.28 2.859 2.859 2.859h3.905c-.205-1.118-.327-2.264-.327-3.441z"/></g><path d="m72.004 98.824c-1.299-.477-2.761-.748-4.336-.748s-3.036.271-4.335.748c.211 1.136.335 2.302.335 3.5 0 .688-.041 1.366-.112 2.035.889-.779 2.383-1.282 4.112-1.282s3.223.503 4.112 1.282c-.071-.669-.112-1.347-.112-2.035.001-1.198.125-2.365.336-3.5z" fill="#face75"/><g><g><ellipse cx="44.669" cy="102.323" fill="#face75" rx="19" ry="19.01"/><ellipse cx="44.669" cy="102.323" rx="14" ry="13.744" fill="#e3cf20"/><g fill="#e3cf20"><path d="m32.191 108.533c1.118 2.16 2.793 3.99 4.849 5.305l18.038-20.683c-1.626-1.778-3.708-3.141-6.077-3.898z"/><path d="m43.67 116.018 14.633-16.778c-.31-1.328-.814-2.58-1.485-3.73l-17.132 19.644c1.252.47 2.589.767 3.984.864z"/><path d="m31.552 107.091 15.906-18.239c-.7-.139-1.423-.211-2.157-.243l-14.352 16.457c.144.698.356 1.37.603 2.025z"/></g></g><g><ellipse cx="90.669" cy="102.323" fill="#face75" rx="19" ry="19.01"/><ellipse cx="90.669" cy="102.323" rx="14" ry="13.744" fill="#e3cf20"/><g fill="#e3cf20"><path d="m78.191 108.533c1.118 2.16 2.793 3.99 4.849 5.305l18.038-20.683c-1.626-1.778-3.708-3.141-6.077-3.898z"/><path d="m89.67 116.018 14.632-16.778c-.31-1.328-.814-2.58-1.485-3.73l-17.132 19.644c1.253.47 2.59.767 3.985.864z"/><path d="m77.552 107.091 15.906-18.239c-.7-.139-1.423-.211-2.157-.243l-14.352 16.457c.144.698.356 1.37.603 2.025z"/></g><g fill="#3a2c60"><path d="m7.894 92.196c.552 0 1-.448 1-1v-11.125c0-.552-.448-1-1-1s-1 .448-1 1v11.125c0 .552.447 1 1 1z"/><path d="m51.227 15.667c2.206 0 4-1.794 4-4s-1.794-4-4-4-4 1.794-4 4 1.795 4 4 4zm0-6c1.103 0 2 .897 2 2s-.897 2-2 2-2-.897-2-2 .897-2 2-2z"/><path d="m26.727 55.23h49c.552 0 1-.448 1-1s-.448-1-1-1h-49c-.552 0-1 .448-1 1s.448 1 1 1z"/><path d="m26.727 45.23h49c.552 0 1-.448 1-1s-.448-1-1-1h-49c-.552 0-1 .448-1 1s.448 1 1 1z"/><path d="m26.727 65.23h49c.552 0 1-.448 1-1s-.448-1-1-1h-49c-.552 0-1 .448-1 1s.448 1 1 1z"/><path d="m26.727 75.23h49c.552 0 1-.448 1-1s-.448-1-1-1h-49c-.552 0-1 .448-1 1s.448 1 1 1z"/><path d="m113.247 99.045h-2.87c-1.303-7.86-7.187-14.173-14.816-16.102v-64.943c0-2.757-2.243-5-5-5h-14.063c-.615-2.064-2.509-3.583-4.771-3.583h-10.766c-1.033-4.475-5.073-7.75-9.734-7.75s-8.702 3.275-9.734 7.75h-10.766c-2.262 0-4.155 1.519-4.771 3.583h-14.062c-2.757 0-5 2.243-5 5v58.071c0 .552.448 1 1 1s1-.448 1-1v-58.071c0-1.654 1.346-3 3-3h13.833v5h-8.833c-1.654 0-3 1.346-3 3v89.333c0 1.654 1.346 3 3 3h12.611c1.792 2.087 4.005 3.792 6.507 5h-24.118c-1.654 0-3-1.346-3-3v-22.262c0-.552-.448-1-1-1s-1 .448-1 1v22.263c0 2.757 2.243 5 5 5h78.775c9.501 0 17.46-6.669 19.486-15.569h3.092c2.128 0 3.859-1.731 3.859-3.859s-1.731-3.861-3.859-3.861zm-19.686-81.045v64.546c-.947-.138-1.907-.234-2.892-.234-.712 0-1.415.041-2.108.114v-59.426c0-1.654-1.346-3-3-3h-8.833v-5h13.833c1.654 0 3 1.346 3 3zm-65.834-3.583c0-1.654 1.346-3 3-3h11.597c.499 0 .921-.368.99-.862.547-3.927 3.949-6.888 7.913-6.888s7.366 2.961 7.913 6.888c.069.494.491.862.99.862h11.597c1.654 0 3 1.346 3 3v8.5c0 .551-.449 1-1 1h-45c-.551 0-1-.449-1-1zm-10.833 98.916c-.551 0-1-.449-1-1v-89.333c0-.551.449-1 1-1h8.833v.917c0 1.654 1.346 3 3 3h45c1.654 0 3-1.346 3-3v-.917h8.833c.551 0 1 .449 1 1v59.741c-7.51 1.576-13.464 7.384-15.291 14.802-1.12-.3-2.326-.468-3.601-.468s-2.481.167-3.6.468c-2.15-8.729-10.02-15.231-19.399-15.231-9.91 0-18.137 7.256-19.708 16.733h-2.87c-2.128 0-3.859 1.731-3.859 3.859s1.731 3.859 3.859 3.859h3.092c.541 2.377 1.498 4.595 2.803 6.569h-11.092zm47.554-13.823c.991-.28 2.073-.434 3.221-.434s2.231.154 3.222.434c-.13.922-.221 1.856-.221 2.813 0 .093.013.184.014.277-.876-.329-1.895-.524-3.015-.524-1.119 0-2.138.194-3.013.523.001-.093.014-.183.014-.276-.001-.957-.092-1.892-.222-2.813zm.033 5.41c.7-.484 1.816-.845 3.188-.845s2.488.361 3.189.845c.401 3.076 1.491 5.937 3.129 8.412h-12.635c1.638-2.474 2.727-5.335 3.129-8.412zm-39.648-.156h-2.742c-1.025 0-1.859-.834-1.859-1.859s.834-1.859 1.859-1.859h2.643c-.027.424-.065.846-.065 1.277 0 .828.066 1.639.164 2.441zm1.836-2.441c0-9.931 8.075-18.01 18-18.01s18 8.08 18 18.01c0 9.931-8.075 18.011-18 18.011s-18-8.08-18-18.011zm26.658 18.011c2.501-1.209 4.715-2.913 6.507-5h15.67c1.792 2.087 4.005 3.792 6.507 5zm37.342 0c-9.925 0-18-8.08-18-18.011s8.075-18.01 18-18.01 18 8.08 18 18.01c0 9.931-8.075 18.011-18 18.011zm22.578-15.57h-2.742c.098-.802.164-1.613.164-2.441 0-.431-.038-.853-.065-1.277h2.643c1.025 0 1.859.834 1.859 1.859s-.834 1.859-1.859 1.859z"/><path d="m59.669 102.323c0-8.13-6.729-14.744-15-14.744s-15 6.614-15 14.744 6.729 14.745 15 14.745 15-6.615 15-14.745zm-28 0c0-7.027 5.832-12.744 13-12.744s13 5.717 13 12.744-5.832 12.745-13 12.745-13-5.718-13-12.745z"/><path d="m90.669 87.579c-8.271 0-15 6.614-15 14.744s6.729 14.745 15 14.745 15-6.614 15-14.745c0-8.13-6.729-14.744-15-14.744zm0 27.488c-7.168 0-13-5.717-13-12.745s5.832-12.744 13-12.744 13 5.717 13 12.744-5.832 12.745-13 12.745z"/></g></g></g></g></g></g></svg>