<svg id="Layer_1" enable-background="new 0 0 128 128" height="512" viewBox="0 0 128 128" width="512" xmlns="http://www.w3.org/2000/svg"><g><g><path d="m113.845 117.089-13.517-13.517v-94.329c0-2.14-1.741-3.88-3.88-3.88h-76.05c-2.14 0-3.88 1.74-3.88 3.88v91.21c0 .266.105.52.293.707l11.04 11.04c.188.188.442.293.707.293h64.867l12.508 12.508c1.091 1.091 2.523 1.636 3.956 1.636s2.865-.545 3.956-1.636c2.182-2.182 2.182-5.73 0-7.912z" fill="#e6e7e8"/></g><g><g><g><path d="m92.448 2.363h-76.05c-1.59 0-2.88 1.29-2.88 2.88v91.21l11.04 11.04h67.89c1.59 0 2.88-1.29 2.88-2.89v-99.36c0-1.59-1.29-2.88-2.88-2.88z" fill="#e3cf20"/></g><g><path d="m26.315 25.838c-.463 0-.915-.161-1.276-.46l-4.377-3.627c-.851-.705-.969-1.966-.264-2.816s1.966-.969 2.816-.264l2.685 2.225 4.426-6.504c.621-.915 1.865-1.15 2.778-.528.914.621 1.15 1.865.528 2.778l-5.662 8.321c-.317.466-.815.776-1.373.855-.094.013-.188.02-.281.02z" fill="#0089ef"/></g><g><path d="m26.315 55.316c-.463 0-.915-.161-1.276-.46l-4.377-3.627c-.851-.705-.969-1.966-.264-2.816.705-.849 1.966-.97 2.816-.264l2.685 2.225 4.426-6.504c.621-.914 1.865-1.15 2.778-.528.914.621 1.15 1.865.528 2.778l-5.662 8.321c-.317.466-.815.776-1.373.855-.094.014-.188.02-.281.02z" fill="#0089ef"/></g><g><g><path d="m31.101 86.049c-.512 0-1.024-.195-1.414-.586l-9.164-9.164c-.781-.781-.781-2.047 0-2.828.78-.781 2.048-.781 2.828 0l9.164 9.164c.781.781.781 2.047 0 2.828-.39.39-.902.586-1.414.586z" fill="#ab1f1f"/></g><g><path d="m21.937 86.049c-.512 0-1.023-.195-1.414-.586-.781-.781-.781-2.047 0-2.828l9.164-9.164c.78-.781 2.047-.781 2.828 0s.781 2.047 0 2.828l-9.164 9.164c-.39.39-.902.586-1.414.586z" fill="#ab1f1f"/></g></g><g><g><path d="m13.518 96.453h8.16c1.59 0 2.88 1.29 2.88 2.89v8.15z" fill="#e6d860"/></g></g><g><path d="m92.448 2.363h-76.05c-1.59 0-2.88 1.29-2.88 2.88v3c0-1.59 1.29-2.88 2.88-2.88h76.05c1.59 0 2.88 1.29 2.88 2.88v-3c0-1.59-1.29-2.88-2.88-2.88z" fill="#e3cf20"/></g></g><g><g><g><path d="m86.257 94.417 4.005 4.005c-.688.213-1.327.59-1.867 1.13s-.917 1.179-1.13 1.867l-4.005-4.005c.549-.434 1.073-.909 1.58-1.417.508-.508.983-1.032 1.417-1.58z" fill="#aba91f"/></g><path d="m84.844 67.884c-7.752-7.752-20.365-7.752-28.117 0s-7.751 20.364.001 28.116 20.363 7.752 28.115 0 7.753-20.365.001-28.116z" fill="#e3cf20"/><path d="m81.568 71.159c-5.955-5.955-15.61-5.955-21.565 0s-5.955 15.61 0 21.565 15.61 5.955 21.565 0 5.955-15.61 0-21.565z" fill="#e3cf20"/><g><path d="m79.832 80.58c-1.975-1.728-5.355-4.063-9.193-4.063s-7.218 2.335-9.193 4.063c-1.104.966-1.104 2.672 0 3.638 1.975 1.728 5.355 4.063 9.193 4.063s7.218-2.335 9.193-4.063c1.104-.966 1.104-2.673 0-3.638z" fill="#fff"/><ellipse cx="70.639" cy="82.399" rx="4.524" ry="4.524" transform="matrix(.383 -.924 .924 .383 -32.52 116.128)" fill="#e3cf20"/><path d="m72.732 79.971c-.817 0-1.478.662-1.478 1.479s.662 1.479 1.478 1.479c.817 0 1.479-.662 1.479-1.479s-.662-1.479-1.479-1.479z" fill="#fff"/></g><g><path d="m109.138 113.796-14.248-14.248c-1.787-1.787-4.711-1.787-6.498 0s-1.787 4.711 0 6.498l14.248 14.248c1.787 1.787 4.711 1.787 6.498 0s1.787-4.711 0-6.498z" fill="#aba91f"/><g fill="#3a2c60"><path d="m13.518 24.679c.552 0 1-.447 1-1v-4.852c0-.553-.448-1-1-1s-1 .447-1 1v4.852c0 .552.448 1 1 1z"/><path d="m38.186 26.179h44.474c.552 0 1-.447 1-1s-.448-1-1-1h-44.474c-.552 0-1 .447-1 1s.448 1 1 1z"/><path d="m38.186 41.179h44.474c.552 0 1-.447 1-1s-.448-1-1-1h-44.474c-.552 0-1 .447-1 1s.448 1 1 1z"/><path d="m38.186 56.179h44.474c.552 0 1-.447 1-1s-.448-1-1-1h-44.474c-.552 0-1 .447-1 1s.448 1 1 1z"/><path d="m82.275 70.452c-6.335-6.336-16.645-6.336-22.979 0-6.335 6.335-6.335 16.644 0 22.979 3.167 3.168 7.329 4.752 11.489 4.752 4.161 0 8.322-1.584 11.49-4.752 6.335-6.335 6.335-16.644 0-22.979zm-1.414 21.565c-5.555 5.555-14.594 5.556-20.151 0-5.555-5.556-5.555-14.595 0-20.15 2.778-2.777 6.427-4.167 10.075-4.167 3.649 0 7.298 1.39 10.076 4.167 5.555 5.555 5.555 14.594 0 20.15z"/><path d="m80.49 79.827c-2.249-1.967-5.783-4.311-9.852-4.311-4.068 0-7.603 2.344-9.852 4.311-.743.649-1.169 1.587-1.17 2.57 0 .984.426 1.923 1.17 2.573 2.249 1.966 5.783 4.31 9.852 4.31 4.07 0 7.604-2.344 9.852-4.31.744-.65 1.17-1.589 1.17-2.573 0-.983-.427-1.92-1.17-2.57zm-1.316 3.638c-1.99 1.74-5.086 3.815-8.535 3.815-3.448 0-6.544-2.075-8.535-3.815-.313-.274-.486-.653-.486-1.066s.173-.792.486-1.065c1.991-1.741 5.088-3.816 8.535-3.816 3.448 0 6.544 2.075 8.535 3.816.313.273.486.652.486 1.065s-.173.791-.486 1.066z"/><path d="m109.845 113.089-13.516-13.517v-94.329c0-2.14-1.741-3.88-3.88-3.88h-76.05c-2.139 0-3.88 1.74-3.88 3.88v8.584c0 .553.448 1 1 1s1-.447 1-1v-8.584c0-1.036.843-1.88 1.88-1.88h76.05c1.037 0 1.88.844 1.88 1.88v92.675c-.816-.449-1.726-.711-2.687-.711-.365 0-.725.037-1.075.104l-2.994-2.993c6.026-8.167 5.368-19.752-2.022-27.141-3.938-3.938-9.182-6.106-14.765-6.106-5.584 0-10.828 2.168-14.766 6.106-.635.635-1.202 1.31-1.738 2.002h-16.096c-.552 0-1 .447-1 1s.448 1 1 1h14.732c-2.385 3.961-3.352 8.538-2.875 13h-11.857c-.552 0-1 .447-1 1s.448 1 1 1h12.17c.794 3.86 2.675 7.539 5.665 10.528 4.071 4.07 9.417 6.105 14.765 6.105 4.36 0 8.708-1.377 12.376-4.083l2.992 2.992c-.323 1.662.131 3.43 1.32 4.772h-61.915v-7.149c0-2.146-1.741-3.891-3.88-3.891h-7.16v-66.626c0-.553-.448-1-1-1s-1 .447-1 1v67.626c0 .266.105.52.293.707l11.04 11.04c.188.188.442.293.707.293h64.867l12.507 12.508c1.053 1.054 2.458 1.634 3.956 1.634 1.499 0 2.903-.58 3.956-1.634 2.182-2.182 2.182-5.731 0-7.912zm-52.41-17.796c-7.361-7.362-7.362-19.341-.001-26.702 3.561-3.561 8.302-5.521 13.352-5.521s9.791 1.96 13.351 5.521c7.361 7.361 7.361 19.34 0 26.702-7.363 7.36-19.341 7.36-26.702 0zm27.284 2.165c.278-.25.564-.484.832-.751s.502-.554.751-.832l2.255 2.255c-.31.205-.603.442-.871.71-.271.271-.508.564-.712.872zm-61.16 1.886v5.735l-7.626-7.626h5.746c1.036 0 1.88.848 1.88 1.891zm84.872 20.243c-1.351 1.352-3.733 1.352-5.084 0l-14.247-14.248c-1.401-1.401-1.401-3.683 0-5.084.675-.676 1.578-1.048 2.542-1.048s1.867.372 2.542 1.048l14.248 14.248c1.4 1.401 1.4 3.683-.001 5.084z"/></g></g></g></g></g></g></svg>