<svg id="Capa_1" enable-background="new 0 0 512 512" height="512" viewBox="0 0 512 512" width="512" xmlns="http://www.w3.org/2000/svg"><g><g><g><path d="m374.375 89.262h-305.686c-9.389 0-17 7.611-17 17v382.754c0 9.389 7.611 17 17 17h305.687c9.389 0 17-7.611 17-17v-382.754c-.001-9.389-7.612-17-17.001-17z" fill="#fceed9"/></g><g><path d="m374.375 89.262h-26.714v356.04c0 9.389-7.611 17-17 17h-278.972v26.714c0 9.389 7.611 17 17 17h305.687c9.389 0 17-7.611 17-17v-382.754c-.001-9.389-7.612-17-17.001-17z" fill="#fad59a"/></g><g><path d="m457.479 462.596-18.013 18.013c-3.776 3.776-9.897 3.776-13.673 0l-74.783-74.783 31.686-31.686 74.783 74.783c3.776 3.775 3.776 9.897 0 13.673z" fill="#9d6b6b"/></g><g><path d="m457.479 448.922-74.783-74.783-13.172 13.172 61.611 61.611c3.776 3.776 3.776 9.897 0 13.673l-11.678 11.678 6.335 6.335c3.776 3.776 9.897 3.776 13.673 0l18.013-18.013c3.777-3.775 3.777-9.897.001-13.673z" fill="#785252"/></g><g><circle cx="315.544" cy="338.673" fill="#d8eafb" r="102.938"/></g><g><path d="m388.331 265.885c-7.125-7.125-15.038-12.981-23.454-17.58 21.35 39.068 15.494 89.047-17.58 122.122s-83.054 38.93-122.122 17.58c4.599 8.416 10.455 16.329 17.58 23.454 40.2 40.199 105.376 40.199 145.576 0 40.2-40.2 40.2-105.376 0-145.576z" fill="#b3d8fb"/></g><g><path d="m302.382 104.516h-161.7c-2.928 0-5.301-2.373-5.301-5.301v-25.225c0-16.693 13.532-30.225 30.225-30.225h111.853c16.693 0 30.225 13.532 30.225 30.225v25.224c-.001 2.928-2.374 5.302-5.302 5.302z" fill="#7c8b96"/></g><g><path d="m284.56 44.613c.549 2.278.847 4.654.847 7.101v25.224c0 2.928-2.373 5.301-5.301 5.301h-144.725v16.975c0 2.928 2.374 5.301 5.301 5.301h161.699c2.928 0 5.301-2.374 5.301-5.301v-25.224c.001-14.246-9.858-26.182-23.122-29.377z" fill="#465961"/></g></g><g><path d="m462.367 442.244-50.81-50.81c22.325-39.831 18-90.682-12.968-126.245v-159.624c0-13.482-10.969-24.451-24.451-24.451h-59.073v-7.756c0-20.759-16.889-37.649-37.649-37.649h-9.09v-8.909c0-14.777-12.023-26.8-26.8-26.8h-39.848c-14.777 0-26.8 12.022-26.8 26.8v8.91h-9.09c-20.759 0-37.649 16.889-37.649 37.649v7.756h-59.074c-13.482 0-24.451 10.969-24.451 24.451v381.985c0 13.482 10.969 24.451 24.451 24.451h258.748c4.134 0 7.485-3.351 7.485-7.485s-3.351-7.485-7.485-7.485h-258.748c-5.228 0-9.481-4.253-9.481-9.481v-381.986c0-5.228 4.253-9.481 9.481-9.481h59.073v2.448c0 7.044 5.731 12.776 12.776 12.776h24.482c4.134 0 7.485-3.351 7.485-7.485s-3.351-7.485-7.485-7.485h-22.288v-22.98c0-12.505 10.174-22.679 22.679-22.679h111.628c12.505 0 22.679 10.174 22.679 22.679v22.979h-98.379c-4.134 0-7.485 3.351-7.485 7.485s3.351 7.485 7.485 7.485h100.573c7.044 0 12.776-5.731 12.776-12.776v-2.448h59.073c5.228 0 9.481 4.253 9.481 9.481v145.371c-35.33-27.871-84.616-31.705-124.097-8.443-3.561 2.099-4.747 6.687-2.649 10.249 2.098 3.561 6.686 4.747 10.249 2.649 37.376-22.023 84.934-15.95 115.652 14.769 37.136 37.136 37.136 97.561 0 134.698-17.99 17.99-41.908 27.897-67.349 27.897s-49.36-9.907-67.349-27.897c-34.881-34.881-37.169-91.572-5.207-129.061 2.682-3.146 2.306-7.87-.84-10.552-3.146-2.681-7.869-2.307-10.552.84-17.925 21.026-27.226 47.864-26.189 75.569 1.042 27.859 12.479 54.064 32.204 73.788 20.817 20.817 48.495 32.282 77.934 32.282 19.207 0 37.662-4.883 53.952-14.056l14.242 14.242v39.638c0 5.228-4.253 9.481-9.481 9.481h-10.188c-4.134 0-7.485 3.351-7.485 7.485s3.351 7.485 7.485 7.485h10.188c13.482 0 24.451-10.969 24.451-24.451v-24.669l21.571 21.571c3.34 3.34 7.727 5.01 12.115 5.01 4.387 0 8.776-1.67 12.116-5.01l17.977-17.977c3.236-3.236 5.019-7.539 5.019-12.116-.001-4.573-1.784-8.876-5.02-12.112zm-272.52-415.444c0-6.523 5.307-11.83 11.83-11.83h39.848c6.523 0 11.83 5.307 11.83 11.83v8.91h-63.508zm261.935 429.09-17.976 17.977c-.845.844-2.217.844-3.061 0l-48.61-48.61c3.922-2.995 7.675-6.265 11.224-9.814 3.567-3.567 6.831-7.324 9.806-11.231l48.617 48.617c.843.844.843 2.217 0 3.061z"/><path d="m284.05 172.559h63.443c4.134 0 7.485-3.351 7.485-7.485s-3.351-7.485-7.485-7.485h-63.443c-4.134 0-7.485 3.351-7.485 7.485s3.351 7.485 7.485 7.485z"/><path d="m99.09 172.559h138.479c4.134 0 7.485-3.351 7.485-7.485s-3.351-7.485-7.485-7.485h-138.479c-4.134 0-7.485 3.351-7.485 7.485s3.351 7.485 7.485 7.485z"/><path d="m99.09 203.376h138.479c4.134 0 7.485-3.351 7.485-7.485s-3.351-7.485-7.485-7.485h-138.479c-4.134 0-7.485 3.351-7.485 7.485 0 4.133 3.351 7.485 7.485 7.485z"/><path d="m186.69 228.181c0-4.134-3.351-7.485-7.485-7.485h-80.115c-4.134 0-7.485 3.351-7.485 7.485s3.351 7.485 7.485 7.485h80.115c4.134 0 7.485-3.351 7.485-7.485z"/><path d="m284.05 203.376h63.443c4.134 0 7.485-3.351 7.485-7.485s-3.351-7.485-7.485-7.485h-63.443c-4.134 0-7.485 3.351-7.485 7.485 0 4.133 3.351 7.485 7.485 7.485z"/><path d="m125.286 301.104c-20.073 0-36.404 16.331-36.404 36.404 0 20.074 16.331 36.405 36.404 36.405 20.074 0 36.405-16.331 36.405-36.405 0-20.073-16.331-36.404-36.405-36.404zm0 57.84c-11.819 0-21.434-9.615-21.434-21.435 0-11.819 9.615-21.434 21.434-21.434s21.435 9.615 21.435 21.434-9.615 21.435-21.435 21.435z"/><path d="m125.286 402.027c-20.073 0-36.404 16.331-36.404 36.405 0 20.073 16.331 36.404 36.404 36.404 20.074 0 36.405-16.331 36.405-36.404 0-20.074-16.331-36.405-36.405-36.405zm0 57.839c-11.819 0-21.434-9.615-21.434-21.434s9.615-21.435 21.434-21.435 21.435 9.616 21.435 21.435-9.615 21.434-21.435 21.434z"/><path d="m187.054 445.917h34.547c4.134 0 7.485-3.351 7.485-7.485s-3.351-7.485-7.485-7.485h-34.547c-4.134 0-7.485 3.351-7.485 7.485s3.351 7.485 7.485 7.485z"/></g></g></svg>